<svg xmlns="http://www.w3.org/2000/svg" xmlns:xlink="http://www.w3.org/1999/xlink" width="500" zoomAndPan="magnify" viewBox="0 0 375 374.999991" height="500" preserveAspectRatio="xMidYMid meet" version="1.0"><defs><g/><clipPath id="id1"><path d="M 127.648438 97.433594 L 265.648438 97.433594 L 265.648438 260.183594 L 127.648438 260.183594 Z M 127.648438 97.433594 " clip-rule="nonzero"/></clipPath><clipPath id="id2"><path d="M 239.207031 85.855469 L 374.957031 85.855469 L 374.957031 259.855469 L 239.207031 259.855469 Z M 239.207031 85.855469 " clip-rule="nonzero"/></clipPath><clipPath id="id3"><path d="M 20.296875 0 L 344.296875 0 L 344.296875 358.472656 L 20.296875 358.472656 Z M 20.296875 0 " clip-rule="nonzero"/></clipPath></defs><path fill="rgb(85.099792%, 85.099792%, 85.099792%)" d="M 8.1875 131.078125 C -10.507812 154.636719 -17.273438 195.121094 8.1875 221.488281 C 33.644531 247.855469 75.902344 237.496094 105.730469 242.203125 C 135.558594 246.90625 172.34375 246.90625 179.867188 205.476562 C 187.429688 164.046875 169.492188 153.691406 118.535156 124.476562 C 67.578125 95.265625 44.058594 85.855469 8.1875 131.078125 Z M 8.1875 131.078125 " fill-opacity="1" fill-rule="nonzero"/><g clip-path="url(#id1)"><path fill="rgb(56.858826%, 78.039551%, 85.879517%)" d="M 179.277344 97.433594 C 160.890625 96.871094 133.707031 112.421875 129.082031 133.839844 C 123.332031 160.4375 137.65625 151.871094 141.152344 173.847656 C 147.695312 214.761719 142.617188 243.390625 192.585938 257.027344 C 303.238281 287.121094 279.328125 100.25 179.277344 97.433594 Z M 179.277344 97.433594 " fill-opacity="1" fill-rule="nonzero"/></g><g clip-path="url(#id2)"><path fill="rgb(93.728638%, 72.938538%, 86.669922%)" d="M 244.421875 120.796875 C 229.691406 144.136719 250.425781 149.460938 255.753906 170.53125 C 261.417969 192.511719 243.742188 215.167969 257.566406 235.675781 C 290.765625 285.070312 359.886719 250.96875 371.898438 204.066406 C 374.277344 194.664062 377.226562 181.976562 371.898438 172.796875 C 364.988281 160.675781 349.347656 164.300781 345.269531 158.410156 C 336.886719 146.175781 345.949219 136.320312 339.152344 121.25 C 334.617188 111.054688 322.835938 118.757812 317.507812 114 C 309.464844 106.75 313.769531 94.855469 302.324219 88.851562 C 280.339844 77.070312 255.300781 103.464844 244.421875 120.796875 Z M 244.421875 120.796875 " fill-opacity="1" fill-rule="nonzero"/></g><g clip-path="url(#id3)"><path fill="rgb(0%, 0%, 0%)" d="M 179.78125 358.472656 C 80.765625 358.472656 0.15625 277.863281 0.15625 178.847656 C 0.15625 79.832031 80.765625 -0.777344 179.78125 -0.777344 C 278.792969 -0.777344 359.40625 79.832031 359.40625 178.847656 C 359.40625 277.863281 278.792969 358.472656 179.78125 358.472656 Z M 179.78125 1.875 C 82.179688 1.875 2.808594 81.246094 2.808594 178.847656 C 2.808594 276.445312 82.179688 355.816406 179.78125 355.816406 C 277.378906 355.816406 356.75 276.445312 356.75 178.847656 C 356.75 81.246094 277.378906 1.875 179.78125 1.875 Z M 179.78125 1.875 " fill-opacity="1" fill-rule="nonzero"/></g><g fill="rgb(0%, 0%, 0%)" fill-opacity="1"><g transform="translate(-1.757978, 206.297917)"><g><path d="M 58.359375 -38.1875 C 59.222656 -38.53125 60.207031 -38.804688 61.3125 -39.015625 C 62.425781 -39.222656 63.921875 -39.328125 65.796875 -39.328125 C 67.671875 -39.328125 69.625 -38.816406 71.65625 -37.796875 C 80.1875 -41.960938 86.007812 -48.03125 89.125 -56 C 90.25 -58.8125 90.8125 -61.660156 90.8125 -64.546875 C 90.8125 -67.441406 90.023438 -69.90625 88.453125 -71.9375 C 87.585938 -71.445312 86.722656 -70.90625 85.859375 -70.3125 L 83.15625 -68.390625 C 78.269531 -64.710938 74.132812 -61.070312 70.75 -57.46875 C 65.039062 -51.414062 58.984375 -44.078125 52.578125 -35.453125 C 46.179688 -26.835938 39.664062 -19.691406 33.03125 -14.015625 C 26.40625 -8.347656 20.085938 -4.273438 14.078125 -1.796875 C 10.816406 -0.523438 6.6875 0.109375 1.6875 0.109375 C -1.582031 0.109375 -4.398438 -0.675781 -6.765625 -2.25 C -9.085938 -3.832031 -10.25 -5.75 -10.25 -8 C -10.25 -10.363281 -9.085938 -11.863281 -6.765625 -12.5 C -6.160156 -12.65625 -5.554688 -12.734375 -4.953125 -12.734375 C -4.359375 -12.734375 -3.75 -12.535156 -3.125 -12.140625 C -2.507812 -11.742188 -2.203125 -11.125 -2.203125 -10.28125 C -2.203125 -9.4375 -2.507812 -8.738281 -3.125 -8.1875 C -3.75 -7.644531 -4.59375 -7.375 -5.65625 -7.375 C -6.726562 -7.375 -7.53125 -7.5625 -8.0625 -7.9375 L -8.0625 -7.609375 C -8.0625 -5.765625 -7.148438 -4.257812 -5.328125 -3.09375 C -3.503906 -1.9375 -1.410156 -1.359375 0.953125 -1.359375 C 3.316406 -1.359375 5.238281 -1.535156 6.71875 -1.890625 C 8.207031 -2.242188 9.832031 -2.925781 11.59375 -3.9375 C 13.363281 -4.957031 15.347656 -6.382812 17.546875 -8.21875 C 19.742188 -10.0625 22.34375 -12.46875 25.34375 -15.4375 L 35.765625 -26.359375 L 49.6875 -41.578125 C 62.875 -56.523438 75.378906 -67.132812 87.203125 -73.40625 C 82.890625 -77.726562 75.753906 -79.890625 65.796875 -79.890625 C 54.191406 -79.890625 42.738281 -75.625 31.4375 -67.09375 C 25.988281 -62.96875 21.484375 -58.59375 17.921875 -53.96875 C 14.304688 -49.195312 12.5 -45.066406 12.5 -41.578125 C 12.5 -38.378906 14.078125 -36.332031 17.234375 -35.4375 C 18.140625 -35.175781 19.398438 -35.046875 21.015625 -35.046875 C 22.628906 -35.046875 24.679688 -35.472656 27.171875 -36.328125 C 29.671875 -37.191406 32.1875 -38.410156 34.71875 -39.984375 C 37.257812 -41.566406 39.734375 -43.457031 42.140625 -45.65625 C 44.546875 -47.851562 46.722656 -50.285156 48.671875 -52.953125 C 52.992188 -58.703125 55.585938 -64.710938 56.453125 -70.984375 C 56.671875 -72.179688 56.957031 -72.78125 57.3125 -72.78125 C 57.675781 -72.78125 57.859375 -72.367188 57.859375 -71.546875 C 57.859375 -64.640625 55.867188 -58.140625 51.890625 -52.046875 C 48.285156 -46.566406 43.457031 -42.140625 37.40625 -38.765625 C 31.507812 -35.453125 25.59375 -33.796875 19.65625 -33.796875 C 15.75 -33.796875 13.066406 -35.265625 11.609375 -38.203125 C 11.078125 -39.171875 10.8125 -40.765625 10.8125 -42.984375 C 10.8125 -45.203125 11.539062 -47.878906 13 -51.015625 C 14.46875 -54.148438 16.488281 -57.171875 19.0625 -60.078125 C 21.632812 -62.992188 24.6875 -65.726562 28.21875 -68.28125 C 31.75 -70.832031 35.5625 -73.066406 39.65625 -74.984375 C 48.488281 -79.078125 57.691406 -81.125 67.265625 -81.125 C 76.835938 -81.125 84.382812 -79.019531 89.90625 -74.8125 C 95.539062 -77.519531 100.238281 -78.875 104 -78.875 C 105.238281 -78.875 105.859375 -78.6875 105.859375 -78.3125 C 105.859375 -78.125 105.519531 -77.984375 104.84375 -77.890625 C 104.164062 -77.796875 103.1875 -77.597656 101.90625 -77.296875 C 98.1875 -76.503906 94.675781 -75.242188 91.375 -73.515625 C 94.90625 -70.140625 96.671875 -65.972656 96.671875 -61.015625 C 96.671875 -56.203125 94.414062 -51.375 89.90625 -46.53125 C 85.738281 -42.0625 80.554688 -38.570312 74.359375 -36.0625 C 77.367188 -33.394531 78.875 -29.617188 78.875 -24.734375 C 78.875 -20.566406 77.3125 -16.53125 74.1875 -12.625 C 69.53125 -6.757812 63.128906 -2.832031 54.984375 -0.84375 C 52.359375 -0.207031 49.914062 0.109375 47.65625 0.109375 C 45.40625 0.109375 43.675781 -0.0859375 42.46875 -0.484375 C 41.269531 -0.878906 40.316406 -1.375 39.609375 -1.96875 C 38.285156 -3.0625 37.625 -4.347656 37.625 -5.828125 C 37.625 -7.316406 38.019531 -8.820312 38.8125 -10.34375 C 39.601562 -11.863281 40.679688 -13.375 42.046875 -14.875 C 43.421875 -16.375 45.046875 -17.816406 46.921875 -19.203125 C 48.804688 -20.597656 50.816406 -21.820312 52.953125 -22.875 C 57.722656 -25.238281 62.34375 -26.421875 66.8125 -26.421875 C 67.601562 -26.421875 68 -26.175781 68 -25.6875 C 68 -25.195312 67.21875 -24.953125 65.65625 -24.953125 C 64.101562 -24.953125 62.28125 -24.671875 60.1875 -24.109375 C 58.101562 -23.546875 56.066406 -22.773438 54.078125 -21.796875 C 52.085938 -20.828125 50.207031 -19.703125 48.4375 -18.421875 C 46.675781 -17.140625 45.140625 -15.804688 43.828125 -14.421875 C 40.929688 -11.421875 39.484375 -8.640625 39.484375 -6.078125 C 39.484375 -3.003906 42.054688 -1.46875 47.203125 -1.46875 C 50.816406 -1.46875 54.613281 -2.816406 58.59375 -5.515625 C 64.976562 -9.796875 69.332031 -15.769531 71.65625 -23.4375 C 72.40625 -25.988281 72.78125 -28.34375 72.78125 -30.5 C 72.78125 -32.664062 72.5 -34.195312 71.9375 -35.09375 C 68.070312 -33.78125 64.8125 -33.125 62.15625 -33.125 C 59.507812 -33.125 57.742188 -33.40625 56.859375 -33.96875 C 55.984375 -34.53125 55.546875 -35.070312 55.546875 -35.59375 C 55.546875 -36.125 55.796875 -36.601562 56.296875 -37.03125 C 56.804688 -37.46875 57.492188 -37.851562 58.359375 -38.1875 Z M 69.90625 -37.015625 C 68.75 -37.691406 67.390625 -38.03125 65.828125 -38.03125 C 64.265625 -38.03125 63.097656 -37.972656 62.328125 -37.859375 C 61.566406 -37.742188 60.882812 -37.59375 60.28125 -37.40625 C 59.039062 -37.070312 58.421875 -36.695312 58.421875 -36.28125 C 58.421875 -35.375 59.507812 -34.921875 61.6875 -34.921875 C 63.863281 -34.921875 66.601562 -35.617188 69.90625 -37.015625 Z M 69.90625 -37.015625 "/></g></g></g><g fill="rgb(0%, 0%, 0%)" fill-opacity="1"><g transform="translate(92.473195, 206.297917)"><g/></g></g><g fill="rgb(0%, 0%, 0%)" fill-opacity="1"><g transform="translate(136.229516, 206.297917)"><g><path d="M 58.359375 -38.1875 C 59.222656 -38.53125 60.207031 -38.804688 61.3125 -39.015625 C 62.425781 -39.222656 63.921875 -39.328125 65.796875 -39.328125 C 67.671875 -39.328125 69.625 -38.816406 71.65625 -37.796875 C 80.1875 -41.960938 86.007812 -48.03125 89.125 -56 C 90.25 -58.8125 90.8125 -61.660156 90.8125 -64.546875 C 90.8125 -67.441406 90.023438 -69.90625 88.453125 -71.9375 C 87.585938 -71.445312 86.722656 -70.90625 85.859375 -70.3125 L 83.15625 -68.390625 C 78.269531 -64.710938 74.132812 -61.070312 70.75 -57.46875 C 65.039062 -51.414062 58.984375 -44.078125 52.578125 -35.453125 C 46.179688 -26.835938 39.664062 -19.691406 33.03125 -14.015625 C 26.40625 -8.347656 20.085938 -4.273438 14.078125 -1.796875 C 10.816406 -0.523438 6.6875 0.109375 1.6875 0.109375 C -1.582031 0.109375 -4.398438 -0.675781 -6.765625 -2.25 C -9.085938 -3.832031 -10.25 -5.75 -10.25 -8 C -10.25 -10.363281 -9.085938 -11.863281 -6.765625 -12.5 C -6.160156 -12.65625 -5.554688 -12.734375 -4.953125 -12.734375 C -4.359375 -12.734375 -3.75 -12.535156 -3.125 -12.140625 C -2.507812 -11.742188 -2.203125 -11.125 -2.203125 -10.28125 C -2.203125 -9.4375 -2.507812 -8.738281 -3.125 -8.1875 C -3.75 -7.644531 -4.59375 -7.375 -5.65625 -7.375 C -6.726562 -7.375 -7.53125 -7.5625 -8.0625 -7.9375 L -8.0625 -7.609375 C -8.0625 -5.765625 -7.148438 -4.257812 -5.328125 -3.09375 C -3.503906 -1.9375 -1.410156 -1.359375 0.953125 -1.359375 C 3.316406 -1.359375 5.238281 -1.535156 6.71875 -1.890625 C 8.207031 -2.242188 9.832031 -2.925781 11.59375 -3.9375 C 13.363281 -4.957031 15.347656 -6.382812 17.546875 -8.21875 C 19.742188 -10.0625 22.34375 -12.46875 25.34375 -15.4375 L 35.765625 -26.359375 L 49.6875 -41.578125 C 62.875 -56.523438 75.378906 -67.132812 87.203125 -73.40625 C 82.890625 -77.726562 75.753906 -79.890625 65.796875 -79.890625 C 54.191406 -79.890625 42.738281 -75.625 31.4375 -67.09375 C 25.988281 -62.96875 21.484375 -58.59375 17.921875 -53.96875 C 14.304688 -49.195312 12.5 -45.066406 12.5 -41.578125 C 12.5 -38.378906 14.078125 -36.332031 17.234375 -35.4375 C 18.140625 -35.175781 19.398438 -35.046875 21.015625 -35.046875 C 22.628906 -35.046875 24.679688 -35.472656 27.171875 -36.328125 C 29.671875 -37.191406 32.1875 -38.410156 34.71875 -39.984375 C 37.257812 -41.566406 39.734375 -43.457031 42.140625 -45.65625 C 44.546875 -47.851562 46.722656 -50.285156 48.671875 -52.953125 C 52.992188 -58.703125 55.585938 -64.710938 56.453125 -70.984375 C 56.671875 -72.179688 56.957031 -72.78125 57.3125 -72.78125 C 57.675781 -72.78125 57.859375 -72.367188 57.859375 -71.546875 C 57.859375 -64.640625 55.867188 -58.140625 51.890625 -52.046875 C 48.285156 -46.566406 43.457031 -42.140625 37.40625 -38.765625 C 31.507812 -35.453125 25.59375 -33.796875 19.65625 -33.796875 C 15.75 -33.796875 13.066406 -35.265625 11.609375 -38.203125 C 11.078125 -39.171875 10.8125 -40.765625 10.8125 -42.984375 C 10.8125 -45.203125 11.539062 -47.878906 13 -51.015625 C 14.46875 -54.148438 16.488281 -57.171875 19.0625 -60.078125 C 21.632812 -62.992188 24.6875 -65.726562 28.21875 -68.28125 C 31.75 -70.832031 35.5625 -73.066406 39.65625 -74.984375 C 48.488281 -79.078125 57.691406 -81.125 67.265625 -81.125 C 76.835938 -81.125 84.382812 -79.019531 89.90625 -74.8125 C 95.539062 -77.519531 100.238281 -78.875 104 -78.875 C 105.238281 -78.875 105.859375 -78.6875 105.859375 -78.3125 C 105.859375 -78.125 105.519531 -77.984375 104.84375 -77.890625 C 104.164062 -77.796875 103.1875 -77.597656 101.90625 -77.296875 C 98.1875 -76.503906 94.675781 -75.242188 91.375 -73.515625 C 94.90625 -70.140625 96.671875 -65.972656 96.671875 -61.015625 C 96.671875 -56.203125 94.414062 -51.375 89.90625 -46.53125 C 85.738281 -42.0625 80.554688 -38.570312 74.359375 -36.0625 C 77.367188 -33.394531 78.875 -29.617188 78.875 -24.734375 C 78.875 -20.566406 77.3125 -16.53125 74.1875 -12.625 C 69.53125 -6.757812 63.128906 -2.832031 54.984375 -0.84375 C 52.359375 -0.207031 49.914062 0.109375 47.65625 0.109375 C 45.40625 0.109375 43.675781 -0.0859375 42.46875 -0.484375 C 41.269531 -0.878906 40.316406 -1.375 39.609375 -1.96875 C 38.285156 -3.0625 37.625 -4.347656 37.625 -5.828125 C 37.625 -7.316406 38.019531 -8.820312 38.8125 -10.34375 C 39.601562 -11.863281 40.679688 -13.375 42.046875 -14.875 C 43.421875 -16.375 45.046875 -17.816406 46.921875 -19.203125 C 48.804688 -20.597656 50.816406 -21.820312 52.953125 -22.875 C 57.722656 -25.238281 62.34375 -26.421875 66.8125 -26.421875 C 67.601562 -26.421875 68 -26.175781 68 -25.6875 C 68 -25.195312 67.21875 -24.953125 65.65625 -24.953125 C 64.101562 -24.953125 62.28125 -24.671875 60.1875 -24.109375 C 58.101562 -23.546875 56.066406 -22.773438 54.078125 -21.796875 C 52.085938 -20.828125 50.207031 -19.703125 48.4375 -18.421875 C 46.675781 -17.140625 45.140625 -15.804688 43.828125 -14.421875 C 40.929688 -11.421875 39.484375 -8.640625 39.484375 -6.078125 C 39.484375 -3.003906 42.054688 -1.46875 47.203125 -1.46875 C 50.816406 -1.46875 54.613281 -2.816406 58.59375 -5.515625 C 64.976562 -9.796875 69.332031 -15.769531 71.65625 -23.4375 C 72.40625 -25.988281 72.78125 -28.34375 72.78125 -30.5 C 72.78125 -32.664062 72.5 -34.195312 71.9375 -35.09375 C 68.070312 -33.78125 64.8125 -33.125 62.15625 -33.125 C 59.507812 -33.125 57.742188 -33.40625 56.859375 -33.96875 C 55.984375 -34.53125 55.546875 -35.070312 55.546875 -35.59375 C 55.546875 -36.125 55.796875 -36.601562 56.296875 -37.03125 C 56.804688 -37.46875 57.492188 -37.851562 58.359375 -38.1875 Z M 69.90625 -37.015625 C 68.75 -37.691406 67.390625 -38.03125 65.828125 -38.03125 C 64.265625 -38.03125 63.097656 -37.972656 62.328125 -37.859375 C 61.566406 -37.742188 60.882812 -37.59375 60.28125 -37.40625 C 59.039062 -37.070312 58.421875 -36.695312 58.421875 -36.28125 C 58.421875 -35.375 59.507812 -34.921875 61.6875 -34.921875 C 63.863281 -34.921875 66.601562 -35.617188 69.90625 -37.015625 Z M 69.90625 -37.015625 "/></g></g></g><g fill="rgb(0%, 0%, 0%)" fill-opacity="1"><g transform="translate(230.460688, 206.297917)"><g/></g></g><g fill="rgb(0%, 0%, 0%)" fill-opacity="1"><g transform="translate(274.21701, 206.297917)"><g><path d="M 58.359375 -38.1875 C 59.222656 -38.53125 60.207031 -38.804688 61.3125 -39.015625 C 62.425781 -39.222656 63.921875 -39.328125 65.796875 -39.328125 C 67.671875 -39.328125 69.625 -38.816406 71.65625 -37.796875 C 80.1875 -41.960938 86.007812 -48.03125 89.125 -56 C 90.25 -58.8125 90.8125 -61.660156 90.8125 -64.546875 C 90.8125 -67.441406 90.023438 -69.90625 88.453125 -71.9375 C 87.585938 -71.445312 86.722656 -70.90625 85.859375 -70.3125 L 83.15625 -68.390625 C 78.269531 -64.710938 74.132812 -61.070312 70.75 -57.46875 C 65.039062 -51.414062 58.984375 -44.078125 52.578125 -35.453125 C 46.179688 -26.835938 39.664062 -19.691406 33.03125 -14.015625 C 26.40625 -8.347656 20.085938 -4.273438 14.078125 -1.796875 C 10.816406 -0.523438 6.6875 0.109375 1.6875 0.109375 C -1.582031 0.109375 -4.398438 -0.675781 -6.765625 -2.25 C -9.085938 -3.832031 -10.25 -5.75 -10.25 -8 C -10.25 -10.363281 -9.085938 -11.863281 -6.765625 -12.5 C -6.160156 -12.65625 -5.554688 -12.734375 -4.953125 -12.734375 C -4.359375 -12.734375 -3.75 -12.535156 -3.125 -12.140625 C -2.507812 -11.742188 -2.203125 -11.125 -2.203125 -10.28125 C -2.203125 -9.4375 -2.507812 -8.738281 -3.125 -8.1875 C -3.75 -7.644531 -4.59375 -7.375 -5.65625 -7.375 C -6.726562 -7.375 -7.53125 -7.5625 -8.0625 -7.9375 L -8.0625 -7.609375 C -8.0625 -5.765625 -7.148438 -4.257812 -5.328125 -3.09375 C -3.503906 -1.9375 -1.410156 -1.359375 0.953125 -1.359375 C 3.316406 -1.359375 5.238281 -1.535156 6.71875 -1.890625 C 8.207031 -2.242188 9.832031 -2.925781 11.59375 -3.9375 C 13.363281 -4.957031 15.347656 -6.382812 17.546875 -8.21875 C 19.742188 -10.0625 22.34375 -12.46875 25.34375 -15.4375 L 35.765625 -26.359375 L 49.6875 -41.578125 C 62.875 -56.523438 75.378906 -67.132812 87.203125 -73.40625 C 82.890625 -77.726562 75.753906 -79.890625 65.796875 -79.890625 C 54.191406 -79.890625 42.738281 -75.625 31.4375 -67.09375 C 25.988281 -62.96875 21.484375 -58.59375 17.921875 -53.96875 C 14.304688 -49.195312 12.5 -45.066406 12.5 -41.578125 C 12.5 -38.378906 14.078125 -36.332031 17.234375 -35.4375 C 18.140625 -35.175781 19.398438 -35.046875 21.015625 -35.046875 C 22.628906 -35.046875 24.679688 -35.472656 27.171875 -36.328125 C 29.671875 -37.191406 32.1875 -38.410156 34.71875 -39.984375 C 37.257812 -41.566406 39.734375 -43.457031 42.140625 -45.65625 C 44.546875 -47.851562 46.722656 -50.285156 48.671875 -52.953125 C 52.992188 -58.703125 55.585938 -64.710938 56.453125 -70.984375 C 56.671875 -72.179688 56.957031 -72.78125 57.3125 -72.78125 C 57.675781 -72.78125 57.859375 -72.367188 57.859375 -71.546875 C 57.859375 -64.640625 55.867188 -58.140625 51.890625 -52.046875 C 48.285156 -46.566406 43.457031 -42.140625 37.40625 -38.765625 C 31.507812 -35.453125 25.59375 -33.796875 19.65625 -33.796875 C 15.75 -33.796875 13.066406 -35.265625 11.609375 -38.203125 C 11.078125 -39.171875 10.8125 -40.765625 10.8125 -42.984375 C 10.8125 -45.203125 11.539062 -47.878906 13 -51.015625 C 14.46875 -54.148438 16.488281 -57.171875 19.0625 -60.078125 C 21.632812 -62.992188 24.6875 -65.726562 28.21875 -68.28125 C 31.75 -70.832031 35.5625 -73.066406 39.65625 -74.984375 C 48.488281 -79.078125 57.691406 -81.125 67.265625 -81.125 C 76.835938 -81.125 84.382812 -79.019531 89.90625 -74.8125 C 95.539062 -77.519531 100.238281 -78.875 104 -78.875 C 105.238281 -78.875 105.859375 -78.6875 105.859375 -78.3125 C 105.859375 -78.125 105.519531 -77.984375 104.84375 -77.890625 C 104.164062 -77.796875 103.1875 -77.597656 101.90625 -77.296875 C 98.1875 -76.503906 94.675781 -75.242188 91.375 -73.515625 C 94.90625 -70.140625 96.671875 -65.972656 96.671875 -61.015625 C 96.671875 -56.203125 94.414062 -51.375 89.90625 -46.53125 C 85.738281 -42.0625 80.554688 -38.570312 74.359375 -36.0625 C 77.367188 -33.394531 78.875 -29.617188 78.875 -24.734375 C 78.875 -20.566406 77.3125 -16.53125 74.1875 -12.625 C 69.53125 -6.757812 63.128906 -2.832031 54.984375 -0.84375 C 52.359375 -0.207031 49.914062 0.109375 47.65625 0.109375 C 45.40625 0.109375 43.675781 -0.0859375 42.46875 -0.484375 C 41.269531 -0.878906 40.316406 -1.375 39.609375 -1.96875 C 38.285156 -3.0625 37.625 -4.347656 37.625 -5.828125 C 37.625 -7.316406 38.019531 -8.820312 38.8125 -10.34375 C 39.601562 -11.863281 40.679688 -13.375 42.046875 -14.875 C 43.421875 -16.375 45.046875 -17.816406 46.921875 -19.203125 C 48.804688 -20.597656 50.816406 -21.820312 52.953125 -22.875 C 57.722656 -25.238281 62.34375 -26.421875 66.8125 -26.421875 C 67.601562 -26.421875 68 -26.175781 68 -25.6875 C 68 -25.195312 67.21875 -24.953125 65.65625 -24.953125 C 64.101562 -24.953125 62.28125 -24.671875 60.1875 -24.109375 C 58.101562 -23.546875 56.066406 -22.773438 54.078125 -21.796875 C 52.085938 -20.828125 50.207031 -19.703125 48.4375 -18.421875 C 46.675781 -17.140625 45.140625 -15.804688 43.828125 -14.421875 C 40.929688 -11.421875 39.484375 -8.640625 39.484375 -6.078125 C 39.484375 -3.003906 42.054688 -1.46875 47.203125 -1.46875 C 50.816406 -1.46875 54.613281 -2.816406 58.59375 -5.515625 C 64.976562 -9.796875 69.332031 -15.769531 71.65625 -23.4375 C 72.40625 -25.988281 72.78125 -28.34375 72.78125 -30.5 C 72.78125 -32.664062 72.5 -34.195312 71.9375 -35.09375 C 68.070312 -33.78125 64.8125 -33.125 62.15625 -33.125 C 59.507812 -33.125 57.742188 -33.40625 56.859375 -33.96875 C 55.984375 -34.53125 55.546875 -35.070312 55.546875 -35.59375 C 55.546875 -36.125 55.796875 -36.601562 56.296875 -37.03125 C 56.804688 -37.46875 57.492188 -37.851562 58.359375 -38.1875 Z M 69.90625 -37.015625 C 68.75 -37.691406 67.390625 -38.03125 65.828125 -38.03125 C 64.265625 -38.03125 63.097656 -37.972656 62.328125 -37.859375 C 61.566406 -37.742188 60.882812 -37.59375 60.28125 -37.40625 C 59.039062 -37.070312 58.421875 -36.695312 58.421875 -36.28125 C 58.421875 -35.375 59.507812 -34.921875 61.6875 -34.921875 C 63.863281 -34.921875 66.601562 -35.617188 69.90625 -37.015625 Z M 69.90625 -37.015625 "/></g></g></g><g fill="rgb(0%, 0%, 0%)" fill-opacity="1"><g transform="translate(184.961523, 84.385607)"><g/></g></g></svg>